<?xml version="1.0" encoding="utf-8"?>
<!-- Generator: Adobe Illustrator 26.0.1, SVG Export Plug-In . SVG Version: 6.00 Build 0)  -->
<svg version="1.1" id="Layer_1" xmlns="http://www.w3.org/2000/svg" xmlns:xlink="http://www.w3.org/1999/xlink" x="0px" y="0px"
	 viewBox="0 0 1200 1200" style="enable-background:new 0 0 1200 1200;" xml:space="preserve">
<style type="text/css">
	.st0{fill:#050708;}
	.st1{fill:#007CBA;}
</style>
<g>
	<path class="st0" d="M169.64,547.5h19.6l0.05,0h1.03v0.32c0.24,0.16,0.45,0.37,0.61,0.63l44.34,68.24l44.34-68.24
		c0.17-0.26,0.38-0.47,0.61-0.63v-0.31h1.03l0.05,0h19.6l0.05,0h2.01v105h-22.74V590l-41.11,62.5h-8.56L190.33,590v62.5h-22.74v-105
		h2.01L169.64,547.5z"/>
	<polygon class="st1" points="321.63,652.5 321.63,547.51 434.28,547.51 434.28,571.59 344.38,571.59 344.38,628.41 434.28,628.41 
		434.28,652.5 	"/>
	<path class="st1" d="M434.28,612.04H372.3c-6.25,0-11.37-5.42-11.37-12.04c0-6.63,5.12-12.04,11.37-12.04h61.98V612.04z"/>
	<path class="st1" d="M580.15,547.5l-50.83,50.91c-0.43,0.43-0.64,0.96-0.64,1.59s0.22,1.16,0.64,1.58l50.83,50.91h-33.1
		l-34.45-34.5c-0.79-0.8-2.04-0.8-2.83,0l-34.45,34.5h-33.1l50.83-50.91c0.43-0.43,0.65-0.96,0.65-1.58c0-0.62-0.22-1.16-0.65-1.59
		l-50.83-50.91h33.1l34.45,34.5c0.79,0.8,2.04,0.8,2.83,0l34.44-34.5H580.15z"/>
	<g>
		<polygon class="st1" points="701.72,547.51 701.72,652.5 589.08,652.5 589.08,628.41 678.98,628.41 678.98,571.59 589.08,571.59 
			589.08,547.51 		"/>
		<path class="st1" d="M589.08,587.96h61.98c6.25,0,11.37,5.42,11.37,12.04c0,6.63-5.12,12.04-11.37,12.04h-61.98V587.96z"/>
	</g>
	<path class="st0" d="M721.48,547.5h19.6l0.05,0h1.03v0.32c0.24,0.16,0.44,0.37,0.61,0.63l44.34,68.24l44.34-68.24
		c0.17-0.26,0.38-0.47,0.61-0.63v-0.31h1.03l0.05,0h19.6l0.05,0h2.01v105h-22.74V590l-41.11,62.5h-8.56L742.17,590v62.5h-22.74v-105
		h2.01L721.48,547.5z"/>
	<path class="st0" d="M890.7,652.5h-27.72l69.08-104.99l69.08,105h-27.72l-10.77-16.36h-31.59c-6.25,0-11.37-5.42-11.37-12.04
		c0-6.62,5.12-12.04,11.37-12.04h15.74l-14.74-22.41L890.7,652.5z"/>
	<polygon class="st0" points="1011.73,547.5 1030.36,547.5 1030.38,547.5 1032.42,547.5 1032.42,652.5 1009.67,652.5 1009.67,547.5 
		1011.71,547.5 	"/>
</g>
</svg>
